Coordinates
version=1
nRows=10
nColumns=40
inDegrees=yes

Units are S.I. units (second, meters, Newtons, ...)
Angles are in degrees.

endheader
time	pelvis_tilt	pelvis_list	pelvis_rotation	pelvis_tx	pelvis_ty	pelvis_tz	hip_flexion_r	hip_adduction_r	hip_rotation_r	knee_angle_r	knee_angle_r_beta	ankle_angle_r	subtalar_angle_r	mtp_angle_r	hip_flexion_l	hip_adduction_l	hip_rotation_l	knee_angle_l	knee_angle_l_beta	ankle_angle_l	subtalar_angle_l	mtp_angle_l	lumbar_extension	lumbar_bending	lumbar_rotation	arm_flex_r	arm_add_r	arm_rot_r	elbow_flex_r	pro_sup_r	wrist_flex_r	wrist_dev_r	arm_flex_l	arm_add_l	arm_rot_l	elbow_flex_l	pro_sup_l	wrist_flex_l	wrist_dev_l
     25.29500000	     -5.33471739	     -5.54286457	      4.91383077	      1.09128261	      0.91665034	      0.47569820	     -4.15543786	      6.00687609	    -21.04723617	      5.79655250	      5.79655250	     16.58205553	      6.10630402	     -3.01500264	     35.09492253	     -6.46384758	     -5.20279612	     14.58019526	     14.58019526	      3.56915104	     -4.43539707	      5.97497492	     -7.55537044	      6.97419691	      3.79289688	     51.38807464	    -16.16962784	     -6.24281432	     84.25469433	     44.85994022	      0.00000000	      0.00000000	    -17.57822325	     -6.08035439	      8.54448625	     23.50682878	     43.82165791	      0.00000000	      0.00000000
     25.30635714	     -5.45621176	     -5.61729859	      4.60951767	      1.09237174	      0.91492632	      0.47435393	     -4.60775777	      5.89426771	    -20.93483067	      6.11728718	      6.11728718	     17.13451750	      6.48328153	     -3.01545524	     34.96164272	     -6.37780855	     -4.89539806	     15.83966876	     15.83966876	      2.94211997	     -6.69141429	      6.26436807	     -7.28792768	      7.08874727	      3.81808034	     51.81825501	    -15.99429304	     -6.03345417	     85.46331523	     44.82318668	      0.00000000	      0.00000000	    -18.42907168	     -5.89397430	      8.71510423	     23.39110372	     43.79699646	      0.00000000	      0.00000000
     25.31771429	     -5.49364085	     -5.45930699	      4.16757694	      1.09379462	      0.91351248	      0.47304264	     -5.22327069	      5.53059287	    -20.60861454	      6.36686785	      6.36686785	     17.62330602	      6.73853967	     -3.01896291	     34.53830139	     -6.23497297	     -5.19746013	     16.95239178	     16.95239178	      2.32334758	     -8.16828229	      6.48496795	     -7.07597675	      6.87484668	      4.03218292	     52.08427365	    -15.92741297	     -5.96202874	     86.01950520	     44.80710524	      0.00000000	      0.00000000	    -19.06251688	     -5.71751739	      8.79536635	     23.22932011	     43.78023267	      0.00000000	      0.00000000
     25.32907143	     -5.67459927	     -5.42630368	      3.83815290	      1.09498503	      0.91189165	      0.47145451	     -5.44204127	      5.17904138	    -20.62235307	      7.07146424	      7.07146424	     18.35257023	      7.17748396	     -2.55154716	     34.33103493	     -5.93898732	     -4.34029520	     17.99197068	     17.99197068	      1.27267668	    -11.09054836	      7.03762927	     -6.77960843	      6.87100281	      4.02846955	     52.02558323	    -15.83851480	     -5.72487920	     87.54578635	     44.76192303	      0.00000000	      0.00000000	    -19.56959944	     -5.53241097	      9.03691797	     23.12460162	     43.76179858	      0.00000000	      0.00000000
     25.34042857	     -5.65870661	     -5.23979466	      3.42854938	      1.09651566	      0.91071627	      0.47000719	     -6.01549208	      4.73280063	    -20.29865726	      7.51473783	      7.51473783	     18.88528913	      7.32619333	     -2.46665194	     33.90262012	     -5.76733278	     -4.42231932	     19.08863804	     19.08863804	      0.74984206	    -12.24842646	      7.15938250	     -6.64421193	      6.63283982	      4.17869336	     51.91308890	    -15.77416258	     -5.67653832	     88.00199527	     44.74948786	      0.00000000	      0.00000000	    -19.91203379	     -5.44641359	      9.12623048	     22.95161602	     43.75262865	      0.00000000	      0.00000000
     25.35178571	     -5.79937129	     -5.06371025	      3.03882529	      1.09784704	      0.90965163	      0.46836920	     -6.11870023	      4.14830848	    -20.17103483	      8.57893375	      8.57893375	     19.96801011	      7.61789990	     -0.83215514	     33.60847934	     -5.44719148	     -3.90098590	     19.93860484	     19.93860484	     -0.03601014	    -14.26306617	      7.26861519	     -6.40445363	      6.43093401	      4.68923372	     51.07797734	    -16.25151448	     -5.88064959	     90.01078671	     44.73056356	      0.00000000	      0.00000000	    -19.74462892	     -5.40943080	      9.81824940	     22.28927498	     43.75788944	      0.00000000	      0.00000000
     25.36314286	     -5.87537480	     -4.86104138	      2.65581784	      1.09917792	      0.90883662	      0.46683216	     -6.26427164	      3.57022259	    -19.70683136	      9.59620078	      9.59620078	     20.36759699	      7.28630897	     -0.90290416	     33.40555339	     -5.26565858	     -3.86920015	     21.02536760	     21.02536760	     -0.16502543	    -15.14235040	      7.13222247	     -6.20270385	      6.16955210	      4.56778924	     50.64326761	    -15.94478126	     -5.80695776	     90.45399222	     44.72220467	      0.00000000	      0.00000000	    -19.81188005	     -5.30531907	      9.98622530	     22.03827955	     43.75830076	      0.00000000	      0.00000000
     25.37450000	     -5.79477907	     -4.62324985	      2.31903619	      1.10052436	      0.90866190	      0.46518419	     -6.58306051	      2.96955403	    -19.31268086	     10.56106894	     10.56106894	     20.51309335	      6.94862804	     -1.04932985	     33.03500859	     -5.06868513	     -3.87780269	     22.04178298	     22.04178298	     -0.00062186	    -15.81190624	      6.89958416	     -6.18432147	      5.84732898	      4.43572727	     49.98346011	    -15.74445432	     -5.72599438	     90.65666081	     44.71429512	      0.00000000	      0.00000000	    -19.71562969	     -5.27359371	     10.05026486	     21.90525730	     43.76226143	      0.00000000	      0.00000000
     25.38585714	     -5.64454921	     -4.39020269	      2.04928252	      1.10179727	      0.90899601	      0.46337792	     -6.84507435	      2.33707318	    -18.95149762	     11.74064822	     11.74064822	     20.50510483	      6.48527219	     -1.25822187	     32.58503740	     -4.85643793	     -3.82915347	     22.97372648	     22.97372648	      0.41153112	    -16.32091808	      6.57238411	     -6.24265839	      5.57120807	      4.23930855	     49.01582677	    -15.47425945	     -5.59148128	     90.74849516	     44.70537408	      0.00000000	      0.00000000	    -19.38176005	     -5.18242059	     10.10080850	     21.87043650	     43.76849454	      0.00000000	      0.00000000
     25.39721429	     -5.88156952	     -4.08686197	      1.69753497	      1.10231920	      0.90893034	      0.46153115	     -5.76957440	      1.35364093	    -18.19306716	     14.59606811	     14.59606811	     20.57435161	      4.82581180	     -2.15157831	     32.59371583	     -4.62290896	     -4.02595230	     23.87668673	     23.87668673	      0.95118005	    -16.64505209	      6.12467951	     -6.00010191	      5.23797514	      4.07091210	     48.12721693	    -15.36035322	     -5.56534274	     91.48021519	     44.68470050	      0.00000000	      0.00000000	    -18.89744593	     -5.20850020	     10.19300006	     21.49443646	     43.79036048	      0.00000000	      0.00000000
